<svg xmlns="http://www.w3.org/2000/svg" width="900" height="620" viewBox="0 0 900 620" role="img">
  <defs>
    <filter id="softShadow" x="-20%" y="-20%" width="140%" height="140%">
      <feDropShadow dx="0" dy="8" stdDeviation="10" flood-color="#0f172a" flood-opacity="0.18"/>
    </filter>
    <marker id="arrow" viewBox="0 0 10 10" refX="8" refY="5" markerWidth="7" markerHeight="7" orient="auto-start-reverse">
      <path d="M 0 0 L 10 5 L 0 10 z" fill="#111827"/>
    </marker>
  </defs>
  <rect width="100%" height="100%" fill="#ffffff"/>
  
  
  <line x1="110" y1="500" x2="760" y2="500" stroke="#111827" stroke-width="9" stroke-linecap="round" marker-end="url(#arrow)"/>
  <line x1="110" y1="500" x2="110" y2="110" stroke="#111827" stroke-width="9" stroke-linecap="round" marker-end="url(#arrow)"/>
  <text x="435" y="555" font-family="Inter, Arial, sans-serif" font-size="36" font-weight="700" fill="#374151">F2</text>
  <text x="52" y="305" font-family="Inter, Arial, sans-serif" font-size="36" font-weight="700" fill="#374151">F1</text>
  <path d="M 430 505 C 430 465 375 445 300 450 C 235 455 220 390 255 360 C 295 325 270 285 305 255 C 345 225 320 185 365 165 C 405 145 405 120 405 92" fill="none" stroke="#111827" stroke-width="8" stroke-linecap="round" stroke-dasharray="16 16"/>
  <circle cx="260" cy="400" r="19" fill="#fff" stroke="#dc2626" stroke-width="10" filter="url(#softShadow)"/>
  <circle cx="225" cy="310" r="19" fill="#fff" stroke="#dc2626" stroke-width="10" filter="url(#softShadow)"/>
  <circle cx="295" cy="270" r="19" fill="#fff" stroke="#dc2626" stroke-width="10" filter="url(#softShadow)"/>
  <circle cx="285" cy="195" r="19" fill="#fff" stroke="#dc2626" stroke-width="10" filter="url(#softShadow)"/>
  <circle cx="340" cy="130" r="19" fill="#fff" stroke="#dc2626" stroke-width="10" filter="url(#softShadow)"/>
  <circle cx="445" cy="420" r="19" fill="#fff" stroke="#dc2626" stroke-width="10" filter="url(#softShadow)"/>
  <line x1="309" y1="330" x2="351" y2="330" stroke="#16a34a" stroke-width="10" stroke-linecap="square"/>
  <line x1="330" y1="309" x2="330" y2="351" stroke="#16a34a" stroke-width="10" stroke-linecap="square"/>
  <line x1="369" y1="310" x2="411" y2="310" stroke="#16a34a" stroke-width="10" stroke-linecap="square"/>
  <line x1="390" y1="289" x2="390" y2="331" stroke="#16a34a" stroke-width="10" stroke-linecap="square"/>
  <line x1="439" y1="300" x2="481" y2="300" stroke="#16a34a" stroke-width="10" stroke-linecap="square"/>
  <line x1="460" y1="279" x2="460" y2="321" stroke="#16a34a" stroke-width="10" stroke-linecap="square"/>
  <line x1="354" y1="235" x2="396" y2="235" stroke="#16a34a" stroke-width="10" stroke-linecap="square"/>
  <line x1="375" y1="214" x2="375" y2="256" stroke="#16a34a" stroke-width="10" stroke-linecap="square"/>
  <line x1="454" y1="225" x2="496" y2="225" stroke="#16a34a" stroke-width="10" stroke-linecap="square"/>
  <line x1="475" y1="204" x2="475" y2="246" stroke="#16a34a" stroke-width="10" stroke-linecap="square"/>
  <line x1="374" y1="160" x2="416" y2="160" stroke="#16a34a" stroke-width="10" stroke-linecap="square"/>
  <line x1="395" y1="139" x2="395" y2="181" stroke="#16a34a" stroke-width="10" stroke-linecap="square"/>
  <text x="170" y="75" font-family="Inter, Arial, sans-serif" font-size="24" font-weight="800" fill="#111827">Decision boundary learned from two features</text>
</svg>
