<svg xmlns="http://www.w3.org/2000/svg" width="920" height="560" viewBox="0 0 920 560" role="img">
  <defs>
    <filter id="softShadow" x="-20%" y="-20%" width="140%" height="140%">
      <feDropShadow dx="0" dy="8" stdDeviation="10" flood-color="#0f172a" flood-opacity="0.18"/>
    </filter>
    <marker id="arrow" viewBox="0 0 10 10" refX="8" refY="5" markerWidth="7" markerHeight="7" orient="auto-start-reverse">
      <path d="M 0 0 L 10 5 L 0 10 z" fill="#111827"/>
    </marker>
  </defs>
  <rect width="100%" height="100%" fill="#ffffff"/>
  
  <rect x="365" y="42" width="190" height="76" rx="10" fill="#dbeafe" stroke="#111827" stroke-width="3"/>
  <text x="460" y="88" text-anchor="middle" font-family="Inter, Arial, sans-serif" font-size="24" font-weight="900" fill="#111827">Outlook?</text>
  <rect x="135" y="197" width="190" height="76" rx="10" fill="#ede9fe" stroke="#111827" stroke-width="3"/>
  <text x="230" y="243" text-anchor="middle" font-family="Inter, Arial, sans-serif" font-size="24" font-weight="900" fill="#111827">Humidity?</text>
  <rect x="595" y="197" width="190" height="76" rx="10" fill="#ede9fe" stroke="#111827" stroke-width="3"/>
  <text x="690" y="243" text-anchor="middle" font-family="Inter, Arial, sans-serif" font-size="24" font-weight="900" fill="#111827">Wind?</text>
  <rect x="45" y="366" width="140" height="68" rx="999" fill="#fee2e2" stroke="#111827" stroke-width="3"/>
  <text x="115" y="408" text-anchor="middle" font-family="Inter, Arial, sans-serif" font-size="24" font-weight="900" fill="#111827">No</text>
  <rect x="275" y="366" width="140" height="68" rx="999" fill="#dcfce7" stroke="#111827" stroke-width="3"/>
  <text x="345" y="408" text-anchor="middle" font-family="Inter, Arial, sans-serif" font-size="24" font-weight="900" fill="#111827">Yes</text>
  <rect x="505" y="366" width="140" height="68" rx="999" fill="#dcfce7" stroke="#111827" stroke-width="3"/>
  <text x="575" y="408" text-anchor="middle" font-family="Inter, Arial, sans-serif" font-size="24" font-weight="900" fill="#111827">Yes</text>
  <rect x="735" y="366" width="140" height="68" rx="999" fill="#fee2e2" stroke="#111827" stroke-width="3"/>
  <text x="805" y="408" text-anchor="middle" font-family="Inter, Arial, sans-serif" font-size="24" font-weight="900" fill="#111827">No</text>
  <line x1="460" y1="120" x2="230" y2="195" stroke="#374151" stroke-width="3"/>
  <text x="345" y="149.5" text-anchor="middle" font-family="Inter, Arial, sans-serif" font-size="18" font-weight="700" fill="#374151">sunny</text>
  <line x1="460" y1="120" x2="690" y2="195" stroke="#374151" stroke-width="3"/>
  <text x="575" y="149.5" text-anchor="middle" font-family="Inter, Arial, sans-serif" font-size="18" font-weight="700" fill="#374151">rain</text>
  <line x1="230" y1="275" x2="115" y2="365" stroke="#374151" stroke-width="3"/>
  <text x="172.5" y="312" text-anchor="middle" font-family="Inter, Arial, sans-serif" font-size="18" font-weight="700" fill="#374151">high</text>
  <line x1="230" y1="275" x2="345" y2="365" stroke="#374151" stroke-width="3"/>
  <text x="287.5" y="312" text-anchor="middle" font-family="Inter, Arial, sans-serif" font-size="18" font-weight="700" fill="#374151">normal</text>
  <line x1="690" y1="275" x2="575" y2="365" stroke="#374151" stroke-width="3"/>
  <text x="632.5" y="312" text-anchor="middle" font-family="Inter, Arial, sans-serif" font-size="18" font-weight="700" fill="#374151">weak</text>
  <line x1="690" y1="275" x2="805" y2="365" stroke="#374151" stroke-width="3"/>
  <text x="747.5" y="312" text-anchor="middle" font-family="Inter, Arial, sans-serif" font-size="18" font-weight="700" fill="#374151">strong</text>
</svg>
